HIERARCHY
ROOT ui
{
	 OFFSET 0 0 0
	 CHANNELS 3 XPosition YPosition Z Position
	 EndSite
	 {
	 OFFSET 0 -1 0
	 }
}
ROOT li
{
	 OFFSET 0 0 0
	 CHANNELS 3 XPosition YPosition Z Position
	 EndSite
	 {
	 OFFSET 0 -1 0
	 }
}
ROOT ul
{
	 OFFSET 0 0 0
	 CHANNELS 3 XPosition YPosition Z Position
	 EndSite
	 {
	 OFFSET 0 -1 0
	 }
}
ROOT ll
{
	 OFFSET 0 0 0
	 CHANNELS 3 XPosition YPosition Z Position
	 EndSite
	 {
	 OFFSET 0 -1 0
	 }
}
ROOT tt
{
	 OFFSET 0 0 0
	 CHANNELS 3 XPosition YPosition Z Position
	 EndSite
	 {
	 OFFSET 0 -1 0
	 }
}
ROOT tb
{
	 OFFSET 0 0 0
	 CHANNELS 3 XPosition YPosition Z Position
	 EndSite
	 {
	 OFFSET 0 -1 0
	 }
}
ROOT td
{
	 OFFSET 0 0 0
	 CHANNELS 3 XPosition YPosition Z Position
	 EndSite
	 {
	 OFFSET 0 -1 0
	 }
}
ROOT v
{
	 OFFSET 0 0 0
	 CHANNELS 3 XPosition YPosition Z Position
	 EndSite
	 {
	 OFFSET 0 -1 0
	 }
}
ROOT bn
{
	 OFFSET 0 0 0
	 CHANNELS 3 XPosition YPosition Z Position
	 EndSite
	 {
	 OFFSET 0 -1 0
	 }
}
MOTION
Frames: 10
Frame Time: 0.002
-0.011759760856628419	0.0028546299934387206	0		0.4477164306640625	-2.366238525390625	0		-0.9014322509765625	0.2234625244140625	0		-0.6475033569335937	-2.473432861328125	0		1.9954163818359374	-0.2698085021972656	0		3.533524169921875	-0.17539138793945314	0		4.86204296875	-0.04171160888671875	0		5.8242333984375	0.24892813110351564	0		-0.051378433227539065	5.97262890625	0		
0.01613096046447754	-0.00532404899597168	0		0.5095152587890625	-2.38178662109375	0		-0.9014522705078125	0.22359092712402343	0		-0.7095360717773438	-2.472636962890625	0		2.0003282470703123	-0.27575128173828123	0		3.5343720703125	-0.18730001831054688	0		4.859794921875	-0.06259540557861328	0		5.829126953125	0.2409622039794922	0		-0.05037434005737305	5.97174169921875	0		
-0.006801716804504395	-9.753450155258179E-4	0		0.45863775634765624	-2.37113818359375	0		-0.9014283447265625	0.22369590759277344	0		-0.7054819946289063	-2.468576416015625	0		2.0052847900390627	-0.2817136535644531	0		3.521491943359375	-0.17807620239257813	0		4.854904296875	-0.054464168548583984	0		5.82914013671875	0.240035400390625	0		-0.035205394744873046	5.98268017578125	0		
0.015308502197265626	0.0028669929504394533	0		0.5047279663085937	-2.368556640625	0		-0.9013593139648437	0.22377899169921875	0		-0.7054218139648437	-2.468493896484375	0		1.965365234375	-0.28020822143554686	0		3.5122685546875	-0.20490890502929687	0		4.861896484375	-0.06147520446777344	0		5.824306640625	0.2491498107910156	0		-0.035117393493652345	5.98276025390625	0		
-0.006619338989257813	-8.337849974632263E-4	0		0.47583938598632813	-2.368182861328125	0		-0.9112334594726562	0.2249499969482422	0		-0.6344136352539063	-2.478197509765625	0		1.998368896484375	-0.29050628662109373	0		3.53644580078125	-0.199113525390625	0		4.8469462890625	-0.0672603759765625	0		5.82523779296875	0.23219070434570313	0		-0.05011026382446289	5.971984375	0		
0.01649511909484863	-0.005037450790405273	0		0.5029741516113281	-2.370429931640625	0		-0.9110743408203125	0.22499493408203125	0		-0.722142578125	-2.467202880859375	0		1.951444091796875	-0.29795452880859374	0		3.503552490234375	-0.2037138214111328	0		4.84996484375	-0.0802496337890625	0		5.81149462890625	0.2413833465576172	0		-0.05192690277099609	5.97405029296875	0		
-0.01121481704711914	0.003294204950332642	0		0.44620318603515624	-2.367784423828125	0		-0.9059268188476562	0.21997012329101562	0		-0.6360730590820313	-2.480101806640625	0		1.9516463623046876	-0.2979231262207031	0		3.4946904296875	-0.20958352661132812	0		4.84408056640625	-0.08815045166015625	0		5.807599609375	0.23246182250976563	0		-0.049751792907714844	5.97205859375	0		
0.020982233047485352	-0.0010339399576187133	0		0.4614385986328125	-2.36892822265625	0		-0.9776377563476563	0.22476266479492188	0		-0.704702880859375	-2.468341552734375	0		1.9568240966796875	-0.30395547485351565	0		3.51791015625	-0.21180723571777343	0		4.8443232421875	-0.0881230697631836	0		5.82582958984375	0.23129692077636718	0		-0.03242604064941406	5.9808916015625	0		
0.0013370490074157714	0.006188625812530517	0		0.4807879943847656	-2.363125244140625	0		-0.9053106079101563	0.22898896789550782	0		-0.6294752197265625	-2.474146240234375	0		1.9530601806640624	-0.30789874267578127	0		3.5092001953125	-0.21069178771972658	0		4.83646142578125	-0.10101332092285156	0		5.8212041015625	0.24037615966796874	0		-0.034145545959472653	5.982919921875	0		
0.01661181640625	0.0030256071090698244	0		0.4770521240234375	-2.3680810546875	0		-0.91004638671875	0.22503805541992186	0		-0.7309998779296875	-2.45905029296875	0		1.943229736328125	-0.32078329467773437	0		3.474273681640625	-0.23229957580566407	0		4.83962939453125	-0.11402618408203125	0		5.8125224609375	0.24149607849121094	0		-0.04898018646240234	5.9720810546875	0		
